HIERARCHY
ROOT Hips
{
	OFFSET 0.000000 0.000000 0.000000 
	CHANNELS 6 Xposition Yposition Zposition Zrotation Yrotation Xrotation
	JOINT LHipJoint
	{
		OFFSET 0.000000 0.000000 0.000000 
		CHANNELS 3 Zrotation Yrotation Xrotation
		JOINT LeftUpLeg
		{
			OFFSET 0.098321 -0.116109 0.039864 
			CHANNELS 3 Zrotation Yrotation Xrotation
			JOINT LeftLeg
			{
				OFFSET 0.161239 -0.442999 0.000000 
				CHANNELS 3 Zrotation Yrotation Xrotation
				JOINT LeftFoot
				{
					OFFSET 0.164996 -0.453322 0.000000 
					CHANNELS 3 Zrotation Yrotation Xrotation
					JOINT LeftToeBase
					{
						OFFSET 0.010540 -0.028957 0.132994 
						CHANNELS 3 Zrotation Yrotation Xrotation
						End Site
						{
							OFFSET 0.000000 -0.000000 0.068574 
						}
					}
				}
			}
		}
	}
	JOINT RHipJoint
	{
		OFFSET 0.000000 0.000000 0.000000 
		CHANNELS 3 Zrotation Yrotation Xrotation
		JOINT RightUpLeg
		{
			OFFSET -0.097504 -0.116109 0.039865 
			CHANNELS 3 Zrotation Yrotation Xrotation
			JOINT RightLeg
			{
				OFFSET -0.158904 -0.436585 0.000000 
				CHANNELS 3 Zrotation Yrotation Xrotation
				JOINT RightFoot
				{
					OFFSET -0.166119 -0.456410 0.000000 
					CHANNELS 3 Zrotation Yrotation Xrotation
					JOINT RightToeBase
					{
						OFFSET -0.011522 -0.031656 0.135198 
						CHANNELS 3 Zrotation Yrotation Xrotation
						End Site
						{
							OFFSET -0.000000 -0.000000 0.069862 
						}
					}
				}
			}
		}
	}
	JOINT LowerBack
	{
		OFFSET 0.000000 0.000000 0.000000 
		CHANNELS 3 Zrotation Yrotation Xrotation
		JOINT Spine
		{
			OFFSET -0.000085 0.120508 -0.018524 
			CHANNELS 3 Zrotation Yrotation Xrotation
			JOINT Spine1
			{
				OFFSET -0.000330 0.122639 -0.001830 
				CHANNELS 3 Zrotation Yrotation Xrotation
				JOINT Neck
				{
					OFFSET 0.000000 0.000000 0.000000 
					CHANNELS 3 Zrotation Yrotation Xrotation
					JOINT Neck1
					{
						OFFSET -0.000634 0.109741 0.004873 
						CHANNELS 3 Zrotation Yrotation Xrotation
						JOINT Head
						{
							OFFSET 0.003462 0.107782 0.002849 
							CHANNELS 3 Zrotation Yrotation Xrotation
							End Site
							{
								OFFSET 0.001356 0.112474 0.000540 
							}
						}
					}
				}
				JOINT LeftShoulder
				{
					OFFSET 0.000000 0.000000 0.000000 
					CHANNELS 3 Zrotation Yrotation Xrotation
					JOINT LeftArm
					{
						OFFSET 0.197682 0.080798 -0.041080 
						CHANNELS 3 Zrotation Yrotation Xrotation
						JOINT LeftForeArm
						{
							OFFSET 0.345189 -0.000000 -0.000000 
							CHANNELS 3 Zrotation Yrotation Xrotation
							JOINT LeftHand
							{
								OFFSET 0.224172 -0.000000 -0.000000 
								CHANNELS 3 Zrotation Yrotation Xrotation
								JOINT LeftFingerBase
								{
									OFFSET 0.000000 0.000000 0.000000 
									CHANNELS 3 Zrotation Yrotation Xrotation
									JOINT LeftHandIndex1
									{
										OFFSET 0.033526 -0.000000 -0.000000 
										CHANNELS 3 Zrotation Yrotation Xrotation
										End Site
										{
											OFFSET 0.027029 -0.000000 -0.000000 
										}
									}
								}
								JOINT LThumb
								{
									OFFSET 0.000000 0.000000 0.000000 
									CHANNELS 3 Zrotation Yrotation Xrotation
									End Site
									{
										OFFSET 0.027442 -0.000000 0.027442 
									}
								}
							}
						}
					}
				}
				JOINT RightShoulder
				{
					OFFSET 0.000000 0.000000 0.000000 
					CHANNELS 3 Zrotation Yrotation Xrotation
					JOINT RightArm
					{
						OFFSET -0.192685 0.089610 -0.033079 
						CHANNELS 3 Zrotation Yrotation Xrotation
						JOINT RightForeArm
						{
							OFFSET -0.365487 -0.000000 0.000000 
							CHANNELS 3 Zrotation Yrotation Xrotation
							JOINT RightHand
							{
								OFFSET -0.226698 -0.000000 -0.000000 
								CHANNELS 3 Zrotation Yrotation Xrotation
								JOINT RightFingerBase
								{
									OFFSET 0.000000 0.000000 0.000000 
									CHANNELS 3 Zrotation Yrotation Xrotation
									JOINT RightHandIndex1
									{
										OFFSET -0.040658 -0.000000 -0.000000 
										CHANNELS 3 Zrotation Yrotation Xrotation
										End Site
										{
											OFFSET -0.032779 -0.000000 -0.000000 
										}
									}
								}
								JOINT RThumb
								{
									OFFSET 0.000000 0.000000 0.000000 
									CHANNELS 3 Zrotation Yrotation Xrotation
									End Site
									{
										OFFSET -0.033279 -0.000000 0.033279 
									}
								}
							}
						}
					}
				}
			}
		}
	}
}
MOTION
Frames: 8
Frame Time: 0.033333
0.000000 1.041387 0.000000 -7.995708 1.878606 4.970597 0.000000 0.000000 0.000000 -7.410261 -16.089088 -33.701485 1.726372 8.270467 23.539103 0.177922 1.331889 6.971475 1.508281 -7.754933 -21.972950 0.000000 0.000000 0.000000 35.816349 -3.053683 19.238142 -5.356028 -13.719450 42.231392 -2.800292 -17.820284 30.869404 -0.940433 -6.057920 16.988731 7.884008 0.782817 13.030642 0.084169 2.165836 1.558589 -4.740958 0.900553 -5.379328 0.316169 -0.944744 -9.444519 0.725106 -1.280264 -7.786661 0.146967 -0.648044 -0.859839 0.000000 0.000000 0.000000 -84.670097 31.075624 41.599567 125.279800 -54.584351 -89.976685 0.000000 0.000000 -29.267063 37.782345 7.745178 5.966989 -7.125000 0.000000 0.000000 9.568830 39.569752 -1.289417 0.000000 0.000000 0.000000 77.449028 7.704514 49.848919 -119.978607 56.309761 -85.639771 0.000000 0.000000 0.630872 -40.844894 22.109421 -18.268724 7.125000 0.000000 0.000000 -7.216450 -1.804817 -7.150361 
0.000000 1.041387 0.000000 -4.649742 2.201228 3.447886 0.000000 0.000000 0.000000 -14.583805 -11.732445 -29.281515 1.992161 8.855233 25.339912 0.041411 -4.698355 7.304976 0.838203 -5.799467 -16.216850 0.000000 0.000000 0.000000 30.409149 -4.304817 9.631308 -12.299239 -18.106451 66.288956 -2.570358 -21.486317 30.467615 -0.944167 -6.110197 17.128153 3.442042 0.841983 14.738909 -0.567353 1.658081 1.317744 -2.876192 0.678764 -6.731439 0.325947 -0.971122 -4.564198 1.098228 -1.195120 -10.377906 0.296833 -0.636422 -2.473694 0.000000 0.000000 0.000000 -83.882782 26.752924 43.696133 125.677124 -54.524166 -90.318405 0.000000 0.000000 -31.036320 39.005821 9.394889 7.513744 -7.125000 0.000000 0.000000 10.799353 41.743565 -0.903783 0.000000 0.000000 0.000000 77.415451 0.822269 50.180298 -105.380569 59.189220 -73.297371 0.000000 0.000000 -2.418339 -40.454659 23.841198 -19.136826 7.125000 0.000000 0.000000 -6.681750 0.071316 -6.808705 
0.000000 1.041387 0.000000 -2.122575 3.211750 1.502775 0.000000 0.000000 0.000000 -19.173050 -10.346700 -26.499550 4.002850 12.185499 36.365124 -0.073400 -9.569500 -2.713325 0.134125 -2.165400 -5.980550 0.000000 0.000000 0.000000 23.861649 -6.401750 -1.028126 -19.764351 -19.559650 88.779922 -1.674325 -23.449551 26.569626 -1.405500 -7.355875 20.834375 0.381175 0.473150 18.267275 -1.082375 0.620925 0.541500 -1.538925 0.223275 -9.625950 -0.435675 -0.693500 0.936625 2.127250 -0.661475 -11.702849 0.798000 -0.399200 -3.934650 0.000000 0.000000 0.000000 -82.213181 21.038725 47.251801 128.210754 -53.738579 -92.401520 0.000000 0.000000 -34.110676 43.620701 14.636700 13.479100 -7.125000 0.000000 0.000000 15.950075 49.113575 1.563050 0.000000 0.000000 0.000000 78.476074 -6.789775 48.991177 -87.659523 60.120277 -57.990074 0.000000 0.000000 -1.898950 -40.925026 25.078875 -20.186226 7.125000 0.000000 0.000000 -6.720750 1.626250 -6.978450 
0.000000 1.041387 0.000000 2.048892 4.271072 1.424064 0.000000 0.000000 0.000000 -24.998495 -11.132055 -21.729683 5.479439 13.919566 42.889935 0.594889 -8.061645 -12.816825 0.182347 -2.667933 -7.364950 0.000000 0.000000 0.000000 15.144850 -6.516384 -14.234558 -25.609562 -18.918751 106.338287 -1.726092 -19.272083 25.447636 -1.731533 -8.180253 23.314798 -3.447492 0.333617 18.814442 -2.269397 -0.421231 2.539155 -0.372558 -0.153514 -7.766961 -0.943197 -0.731678 -3.470253 2.686772 -0.676131 -12.527695 1.049667 -0.379178 -3.410006 0.000000 0.000000 0.000000 -80.828171 5.246125 50.074368 129.085770 -53.409588 -93.106842 0.000000 0.000000 -33.825733 41.076977 14.390612 12.203256 -7.125000 0.000000 0.000000 13.305098 48.309185 1.068883 0.000000 0.000000 0.000000 81.048698 -10.126520 43.820152 -76.639381 59.417229 -48.463776 0.000000 0.000000 3.586339 -43.904591 25.285553 -22.249926 7.125000 0.000000 0.000000 -8.395650 2.905783 -8.864695 
0.000000 1.041387 0.000000 2.722958 -0.587206 4.046752 0.000000 0.000000 0.000000 -26.631439 -7.002811 -18.564816 5.441628 13.867534 42.704247 1.184078 -6.505789 -19.210426 0.507569 -4.560567 -12.660749 0.000000 0.000000 0.000000 12.968550 3.296983 -31.622393 -28.978872 -17.874352 117.105453 -0.983758 -14.267617 19.063646 -0.375467 -3.971030 10.989320 -5.363859 2.009383 17.409208 -2.598219 1.418714 2.074111 -0.083792 0.799297 -7.589373 0.395981 -0.607856 -2.293431 1.308294 -0.630386 -15.447739 0.393833 -0.387156 -4.704061 0.000000 0.000000 0.000000 -79.528358 -7.116775 52.252636 131.237000 -52.505398 -94.815872 0.000000 0.000000 -30.267086 37.244457 9.245422 6.964311 -7.125000 0.000000 0.000000 9.196219 41.360497 -0.833583 0.000000 0.000000 0.000000 83.648216 -17.467264 38.285332 -75.614937 59.224586 -47.576973 0.000000 0.000000 3.622428 -43.792957 24.618330 -21.750126 7.125000 0.000000 0.000000 -8.462050 2.103917 -8.853939 
0.000000 1.041387 0.000000 3.666500 4.516700 3.557400 0.000000 0.000000 0.000000 -28.590200 -6.818600 -6.065600 4.053400 12.231200 36.554699 1.081100 -6.215900 -18.565201 1.128800 -6.748200 -18.971600 0.000000 0.000000 0.000000 11.132500 1.149200 -40.726002 -28.313400 -18.254999 115.008003 -0.744400 -11.693700 16.314800 -1.080100 -6.605800 18.552601 -4.944100 -1.184600 19.166599 -2.239400 -2.771100 2.352500 1.094300 -1.204900 -8.063800 -0.371800 0.673100 -3.370600 0.900000 1.018300 -14.589600 0.338500 0.490500 -4.192800 -0.000000 0.000000 0.000000 -79.916397 -14.096100 49.774601 135.380905 -50.580502 -98.055901 -0.000000 0.000000 -24.875401 35.662899 6.261600 4.475200 -7.125000 0.000000 -0.000000 7.620500 37.572300 -1.403000 -0.000000 0.000000 0.000000 82.593597 -22.223101 38.408199 -76.065697 59.253502 -47.962799 0.000000 0.000000 1.302200 -45.134499 22.864700 -21.324900 7.125000 -0.000000 -0.000000 -9.650500 0.505700 -9.876000 
0.000000 1.041387 0.000000 3.763700 6.279900 4.967500 0.000000 0.000000 0.000000 -27.729900 -4.429600 3.312900 2.419000 9.689100 27.975700 0.284400 -5.312000 -9.631100 2.321500 -9.505900 -27.391100 0.000000 0.000000 0.000000 11.165200 4.324000 -48.246201 -25.204901 -19.337700 105.381401 -0.158600 -10.338800 9.573700 -0.039200 1.277800 -3.513600 -5.577300 -2.934200 18.305099 -1.471500 -5.102900 1.747300 2.814700 -2.286000 -7.999700 -0.451700 1.620100 -3.694500 0.401500 2.225100 -13.433700 0.163300 1.110400 -3.718800 0.000000 -0.000000 0.000000 -80.114899 -17.096500 47.981098 140.860596 -47.551701 -102.198402 -0.000000 0.000000 -23.673201 38.279400 4.270600 3.363300 -7.125000 0.000000 -0.000000 9.674900 35.277500 -2.338200 0.000000 -0.000000 0.000000 81.750603 -26.470301 37.779400 -78.129402 59.460800 -49.738300 0.000000 0.000000 0.140000 -45.435200 23.905199 -22.363701 7.125000 -0.000000 -0.000000 -9.567600 1.902500 -10.018900 
0.000000 1.041387 0.000000 3.599300 5.774600 6.155700 0.000000 0.000000 0.000000 -25.966000 -0.879600 11.907600 1.026700 6.445700 18.083099 0.091200 -1.383800 6.390700 2.240200 -9.349500 -26.894800 0.000000 0.000000 0.000000 10.732900 9.380000 -51.114899 -20.111799 -19.999701 90.326897 0.026000 -12.308500 8.277800 -0.147900 -2.478400 6.829700 -5.753800 -3.692000 16.978701 -0.941300 -6.026800 1.289000 3.602900 -2.730600 -7.615000 0.064300 1.935000 -4.272200 -0.388700 2.554000 -13.234100 -0.182400 1.273500 -3.522500 0.000000 0.000000 0.000000 -79.505898 -18.994301 46.795601 144.724197 -45.008099 -104.991997 -0.000000 0.000000 -25.581800 38.434502 1.825200 1.447800 -7.125000 0.000000 -0.000000 9.538100 32.211201 -3.022300 0.000000 0.000000 0.000000 81.985497 -30.087999 35.946701 -79.439301 59.574402 -50.867199 0.000000 0.000000 0.006000 -45.713799 23.632401 -22.341700 7.125000 -0.000000 -0.000000 -9.794500 1.681400 -10.226600 
